<svg width="1439" height="106" viewBox="0 0 1439 106" fill="none" xmlns="http://www.w3.org/2000/svg">
<g filter="url(#filter0_b_74_473)">
<rect width="1440" height="106" fill="white" fill-opacity="0.25"/>
</g>
<path d="M100.54 35.722H106.326C107.69 35.722 108.739 35.8247 109.472 36.03C110.22 36.2207 110.748 36.536 111.056 36.976C111.364 37.4013 111.518 38.0027 111.518 38.78V40.54C111.518 40.936 111.357 41.31 111.034 41.662C110.726 42.014 110.359 42.256 109.934 42.388V42.498C110.491 42.5567 110.997 42.7987 111.452 43.224C111.921 43.6347 112.156 44.0967 112.156 44.61V46.81C112.156 47.9687 111.694 48.79 110.77 49.274C109.846 49.758 108.416 50 106.48 50H100.54V35.722ZM106.326 41.53C106.869 41.53 107.272 41.486 107.536 41.398C107.8 41.31 107.976 41.1707 108.064 40.98C108.167 40.7747 108.218 40.4813 108.218 40.1V39.396C108.218 39.0587 108.174 38.8093 108.086 38.648C107.998 38.472 107.815 38.3473 107.536 38.274C107.272 38.2007 106.847 38.164 106.26 38.164H103.972V41.53H106.326ZM106.414 47.558C107.25 47.558 107.844 47.4627 108.196 47.272C108.548 47.0813 108.724 46.7733 108.724 46.348V45.204C108.724 44.676 108.585 44.302 108.306 44.082C108.042 43.862 107.565 43.752 106.876 43.752H103.972V47.558H106.414ZM119.719 50.22C115.95 50.22 114.065 49.0687 114.065 46.766V42.938C114.065 41.6033 114.49 40.6353 115.341 40.034C116.206 39.4327 117.534 39.132 119.323 39.132C121.01 39.132 122.242 39.4253 123.019 40.012C123.811 40.584 124.207 41.5593 124.207 42.938V45.534H117.299V46.502C117.299 47.118 117.519 47.558 117.959 47.822C118.399 48.086 119.191 48.218 120.335 48.218C121.391 48.218 122.579 48.064 123.899 47.756V49.802C122.594 50.0807 121.2 50.22 119.719 50.22ZM121.149 43.708V42.168C121.149 41.816 121.002 41.552 120.709 41.376C120.43 41.2 119.954 41.112 119.279 41.112C118.502 41.112 117.981 41.2 117.717 41.376C117.438 41.5667 117.299 41.8307 117.299 42.168V43.708H121.149ZM129.676 50.22C128.679 50.22 127.931 50.132 127.432 49.956C126.948 49.7653 126.603 49.4353 126.398 48.966C126.207 48.482 126.112 47.7633 126.112 46.81C126.112 45.9593 126.215 45.292 126.42 44.808C126.64 44.324 126.985 43.9793 127.454 43.774C127.938 43.554 128.598 43.444 129.434 43.444H133.042V42.718C133.042 42.2633 132.976 41.926 132.844 41.706C132.727 41.486 132.499 41.332 132.162 41.244C131.839 41.156 131.348 41.112 130.688 41.112C129.779 41.112 128.532 41.2 126.948 41.376V39.352C128.107 39.2053 129.463 39.132 131.018 39.132C132.382 39.132 133.431 39.2347 134.164 39.44C134.912 39.6453 135.447 39.9973 135.77 40.496C136.093 40.9947 136.254 41.7207 136.254 42.674V50H133.108V49.032C132.859 49.4573 132.521 49.758 132.096 49.934C131.671 50.1247 130.864 50.22 129.676 50.22ZM130.93 48.218C131.575 48.218 132.037 48.196 132.316 48.152C132.521 48.1227 132.661 48.0787 132.734 48.02C132.822 47.9613 132.895 47.866 132.954 47.734C133.013 47.6313 133.042 47.4773 133.042 47.272V45.204H130.842C130.343 45.204 129.991 45.2407 129.786 45.314C129.581 45.3727 129.441 45.5047 129.368 45.71C129.295 45.9007 129.258 46.2453 129.258 46.744C129.258 47.228 129.295 47.5653 129.368 47.756C129.441 47.9467 129.581 48.0713 129.786 48.13C130.006 48.1887 130.387 48.218 130.93 48.218ZM142.776 50.22C141.412 50.22 140.451 49.978 139.894 49.494C139.351 48.9953 139.08 48.218 139.08 47.162V39.352H142.292V46.722C142.292 47.1327 142.329 47.4407 142.402 47.646C142.49 47.8513 142.651 47.998 142.886 48.086C143.135 48.174 143.509 48.218 144.008 48.218C144.639 48.218 145.101 48.1813 145.394 48.108C145.687 48.02 145.885 47.8733 145.988 47.668C146.091 47.4627 146.142 47.1473 146.142 46.722V39.352H149.354V50H146.186V48.702C145.951 49.714 144.815 50.22 142.776 50.22ZM157.488 50.22C156.945 50.22 156.491 50.198 156.124 50.154C155.757 50.11 155.391 50.022 155.024 49.89C154.613 49.758 154.276 49.5747 154.012 49.34C153.763 49.1053 153.557 48.7827 153.396 48.372C153.22 47.9467 153.132 47.4553 153.132 46.898V41.332H150.976V39.352H153.132V36.272H156.344V39.352H159.27V41.332H156.344V46.348C156.344 46.8613 156.388 47.25 156.476 47.514C156.564 47.7633 156.733 47.9467 156.982 48.064C157.231 48.1667 157.613 48.218 158.126 48.218C158.331 48.218 158.713 48.1813 159.27 48.108V50.11C158.581 50.1833 157.987 50.22 157.488 50.22ZM164.137 49.912L159.891 39.352H163.389L165.787 46.876L167.965 39.352H171.287L165.457 54.576H162.201L164.137 49.912ZM99.88 68.91L107.316 59.164H100.1V56.722H111.54V58.79L104.104 68.536H111.672V71H99.88V68.91ZM118.983 71.22C118.323 71.22 117.78 71.198 117.355 71.154C116.929 71.11 116.475 71.022 115.991 70.89C115.463 70.7433 115.037 70.538 114.715 70.274C114.392 69.9953 114.121 69.6067 113.901 69.108C113.681 68.624 113.571 68.0373 113.571 67.348V64.202C113.571 63.498 113.681 62.882 113.901 62.354C114.121 61.826 114.407 61.4153 114.759 61.122C115.067 60.8727 115.47 60.6673 115.969 60.506C116.482 60.33 116.981 60.22 117.465 60.176C118.022 60.1467 118.528 60.132 118.983 60.132C119.657 60.132 120.193 60.154 120.589 60.198C120.999 60.2273 121.447 60.3153 121.931 60.462C122.459 60.6233 122.884 60.8433 123.207 61.122C123.544 61.4007 123.83 61.7967 124.065 62.31C124.285 62.838 124.395 63.4687 124.395 64.202V67.348C124.395 68.008 124.285 68.5873 124.065 69.086C123.859 69.5847 123.588 69.9733 123.251 70.252C122.957 70.5013 122.554 70.7067 122.041 70.868C121.542 71.0147 121.051 71.11 120.567 71.154C120.127 71.198 119.599 71.22 118.983 71.22ZM118.983 69.218C119.584 69.218 120.039 69.174 120.347 69.086C120.655 68.9833 120.867 68.8293 120.985 68.624C121.117 68.4187 121.183 68.118 121.183 67.722V63.696C121.183 63.1093 121.029 62.6987 120.721 62.464C120.413 62.2293 119.833 62.112 118.983 62.112C118.132 62.112 117.553 62.2293 117.245 62.464C116.937 62.6987 116.783 63.1093 116.783 63.696V67.722C116.783 68.118 116.841 68.4187 116.959 68.624C117.091 68.8293 117.311 68.9833 117.619 69.086C117.927 69.174 118.381 69.218 118.983 69.218ZM126.898 60.352H130.066V61.65C130.316 60.638 131.452 60.132 133.476 60.132C134.84 60.132 135.794 60.3813 136.336 60.88C136.894 61.364 137.172 62.134 137.172 63.19V71H133.96V63.608C133.96 63.1973 133.916 62.8893 133.828 62.684C133.755 62.4787 133.594 62.332 133.344 62.244C133.11 62.156 132.743 62.112 132.244 62.112C131.614 62.112 131.152 62.156 130.858 62.244C130.565 62.3173 130.367 62.4567 130.264 62.662C130.162 62.8673 130.11 63.1827 130.11 63.608V71H126.898V60.352ZM145.328 71.22C141.559 71.22 139.674 70.0687 139.674 67.766V63.938C139.674 62.6033 140.1 61.6353 140.95 61.034C141.816 60.4327 143.143 60.132 144.932 60.132C146.619 60.132 147.851 60.4253 148.628 61.012C149.42 61.584 149.816 62.5593 149.816 63.938V66.534H142.908V67.502C142.908 68.118 143.128 68.558 143.568 68.822C144.008 69.086 144.8 69.218 145.944 69.218C147 69.218 148.188 69.064 149.508 68.756V70.802C148.203 71.0807 146.81 71.22 145.328 71.22ZM146.758 64.708V63.168C146.758 62.816 146.612 62.552 146.318 62.376C146.04 62.2 145.563 62.112 144.888 62.112C144.111 62.112 143.59 62.2 143.326 62.376C143.048 62.5667 142.908 62.8307 142.908 63.168V64.708H146.758Z" fill="#2B7FFF"/>
<path d="M424.566 46.7031V59.5H421.93V48.7686H416.788V59.5H414.151V46.7031H424.566ZM429.242 51.8184V63.1562H426.711V49.9902H429.058L429.242 51.8184ZM435.263 54.6396V54.8242C435.263 55.5156 435.181 56.1572 435.017 56.749C434.858 57.3408 434.624 57.8564 434.313 58.2959C434.003 58.7295 433.616 59.0693 433.153 59.3154C432.696 59.5557 432.169 59.6758 431.571 59.6758C430.991 59.6758 430.487 59.5586 430.06 59.3242C429.632 59.0898 429.271 58.7617 428.979 58.3398C428.691 57.9121 428.46 57.417 428.284 56.8545C428.108 56.292 427.974 55.6885 427.88 55.0439V54.5605C427.974 53.8691 428.108 53.2363 428.284 52.6621C428.46 52.082 428.691 51.5811 428.979 51.1592C429.271 50.7314 429.629 50.4004 430.051 50.166C430.479 49.9316 430.979 49.8145 431.554 49.8145C432.157 49.8145 432.688 49.9287 433.145 50.1572C433.607 50.3857 433.994 50.7139 434.305 51.1416C434.621 51.5693 434.858 52.0791 435.017 52.6709C435.181 53.2627 435.263 53.9189 435.263 54.6396ZM432.723 54.8242V54.6396C432.723 54.2354 432.688 53.8633 432.617 53.5234C432.553 53.1777 432.447 52.876 432.301 52.6182C432.16 52.3604 431.973 52.1611 431.738 52.0205C431.51 51.874 431.231 51.8008 430.903 51.8008C430.558 51.8008 430.262 51.8564 430.016 51.9678C429.775 52.0791 429.579 52.2402 429.427 52.4512C429.274 52.6621 429.16 52.9141 429.084 53.207C429.008 53.5 428.961 53.8311 428.943 54.2002V55.4219C428.973 55.8555 429.055 56.2451 429.189 56.5908C429.324 56.9307 429.532 57.2002 429.813 57.3994C430.095 57.5986 430.464 57.6982 430.921 57.6982C431.255 57.6982 431.536 57.625 431.765 57.4785C431.993 57.3262 432.178 57.1182 432.318 56.8545C432.465 56.5908 432.567 56.2861 432.626 55.9404C432.69 55.5947 432.723 55.2227 432.723 54.8242ZM436.432 54.8418V54.6572C436.432 53.96 436.531 53.3184 436.73 52.7324C436.93 52.1406 437.22 51.6279 437.601 51.1943C437.981 50.7607 438.45 50.4238 439.007 50.1836C439.563 49.9375 440.202 49.8145 440.923 49.8145C441.644 49.8145 442.285 49.9375 442.848 50.1836C443.41 50.4238 443.882 50.7607 444.263 51.1943C444.649 51.6279 444.942 52.1406 445.142 52.7324C445.341 53.3184 445.44 53.96 445.44 54.6572V54.8418C445.44 55.5332 445.341 56.1748 445.142 56.7666C444.942 57.3525 444.649 57.8652 444.263 58.3047C443.882 58.7383 443.413 59.0752 442.856 59.3154C442.3 59.5557 441.661 59.6758 440.94 59.6758C440.22 59.6758 439.578 59.5557 439.016 59.3154C438.459 59.0752 437.987 58.7383 437.601 58.3047C437.22 57.8652 436.93 57.3525 436.73 56.7666C436.531 56.1748 436.432 55.5332 436.432 54.8418ZM438.963 54.6572V54.8418C438.963 55.2402 438.998 55.6123 439.068 55.958C439.139 56.3037 439.25 56.6084 439.402 56.8721C439.561 57.1299 439.766 57.332 440.018 57.4785C440.27 57.625 440.577 57.6982 440.94 57.6982C441.292 57.6982 441.594 57.625 441.846 57.4785C442.098 57.332 442.3 57.1299 442.452 56.8721C442.604 56.6084 442.716 56.3037 442.786 55.958C442.862 55.6123 442.9 55.2402 442.9 54.8418V54.6572C442.9 54.2705 442.862 53.9072 442.786 53.5674C442.716 53.2217 442.602 52.917 442.443 52.6533C442.291 52.3838 442.089 52.1729 441.837 52.0205C441.585 51.8682 441.28 51.792 440.923 51.792C440.565 51.792 440.261 51.8682 440.009 52.0205C439.763 52.1729 439.561 52.3838 439.402 52.6533C439.25 52.917 439.139 53.2217 439.068 53.5674C438.998 53.9072 438.963 54.2705 438.963 54.6572ZM457.991 53.8311V55.7998H453.157V53.8311H457.991ZM454.001 49.9902V59.5H451.47V49.9902H454.001ZM459.705 49.9902V59.5H457.165V49.9902H459.705ZM466.807 57.3555V53.1191C466.807 52.8145 466.757 52.5537 466.657 52.3369C466.558 52.1143 466.402 51.9414 466.191 51.8184C465.986 51.6953 465.72 51.6338 465.392 51.6338C465.11 51.6338 464.867 51.6836 464.662 51.7832C464.457 51.877 464.299 52.0146 464.188 52.1963C464.076 52.3721 464.021 52.5801 464.021 52.8203H461.489C461.489 52.416 461.583 52.0322 461.771 51.6689C461.958 51.3057 462.23 50.9863 462.588 50.7109C462.945 50.4297 463.37 50.21 463.862 50.0518C464.36 49.8936 464.917 49.8145 465.532 49.8145C466.271 49.8145 466.927 49.9375 467.501 50.1836C468.075 50.4297 468.526 50.7988 468.854 51.291C469.188 51.7832 469.355 52.3984 469.355 53.1367V57.2061C469.355 57.7275 469.388 58.1553 469.452 58.4893C469.517 58.8174 469.61 59.1045 469.733 59.3506V59.5H467.176C467.053 59.2422 466.959 58.9199 466.895 58.5332C466.836 58.1406 466.807 57.748 466.807 57.3555ZM467.141 53.708L467.158 55.1406H465.743C465.409 55.1406 465.119 55.1787 464.873 55.2549C464.627 55.3311 464.425 55.4395 464.267 55.5801C464.108 55.7148 463.991 55.873 463.915 56.0547C463.845 56.2363 463.81 56.4355 463.81 56.6523C463.81 56.8691 463.859 57.0654 463.959 57.2412C464.059 57.4111 464.202 57.5459 464.39 57.6455C464.577 57.7393 464.797 57.7861 465.049 57.7861C465.43 57.7861 465.761 57.71 466.042 57.5576C466.323 57.4053 466.54 57.2178 466.692 56.9951C466.851 56.7725 466.933 56.5615 466.938 56.3623L467.606 57.4346C467.513 57.6748 467.384 57.9238 467.22 58.1816C467.062 58.4395 466.859 58.6826 466.613 58.9111C466.367 59.1338 466.071 59.3184 465.726 59.4648C465.38 59.6055 464.97 59.6758 464.495 59.6758C463.892 59.6758 463.344 59.5557 462.852 59.3154C462.365 59.0693 461.979 58.7324 461.691 58.3047C461.41 57.8711 461.27 57.3789 461.27 56.8281C461.27 56.3301 461.363 55.8877 461.551 55.501C461.738 55.1143 462.014 54.7891 462.377 54.5254C462.746 54.2559 463.206 54.0537 463.757 53.9189C464.308 53.7783 464.946 53.708 465.673 53.708H467.141ZM475.235 57.6982C475.546 57.6982 475.821 57.6396 476.062 57.5225C476.302 57.3994 476.489 57.2295 476.624 57.0127C476.765 56.79 476.838 56.5293 476.844 56.2305H479.226C479.22 56.8984 479.041 57.4932 478.689 58.0146C478.338 58.5303 477.866 58.9375 477.274 59.2363C476.683 59.5293 476.021 59.6758 475.288 59.6758C474.55 59.6758 473.905 59.5527 473.354 59.3066C472.81 59.0605 472.355 58.7207 471.992 58.2871C471.629 57.8477 471.356 57.3379 471.175 56.7578C470.993 56.1719 470.902 55.5449 470.902 54.877V54.6221C470.902 53.9482 470.993 53.3213 471.175 52.7412C471.356 52.1553 471.629 51.6455 471.992 51.2119C472.355 50.7725 472.81 50.4297 473.354 50.1836C473.899 49.9375 474.538 49.8145 475.271 49.8145C476.05 49.8145 476.732 49.9639 477.318 50.2627C477.91 50.5615 478.373 50.9893 478.707 51.5459C479.047 52.0967 479.22 52.75 479.226 53.5059H476.844C476.838 53.1895 476.771 52.9023 476.642 52.6445C476.519 52.3867 476.337 52.1816 476.097 52.0293C475.862 51.8711 475.572 51.792 475.227 51.792C474.857 51.792 474.556 51.8711 474.321 52.0293C474.087 52.1816 473.905 52.3926 473.776 52.6621C473.647 52.9258 473.557 53.2275 473.504 53.5674C473.457 53.9014 473.434 54.2529 473.434 54.6221V54.877C473.434 55.2461 473.457 55.6006 473.504 55.9404C473.551 56.2803 473.639 56.582 473.768 56.8457C473.902 57.1094 474.087 57.3174 474.321 57.4697C474.556 57.6221 474.86 57.6982 475.235 57.6982Z" fill="#2B7FFF"/>
<path d="M537.327 46.7031H539.023V50.7021C539.023 51.3643 539.12 51.8828 539.313 52.2578C539.507 52.6328 539.8 52.8965 540.192 53.0488C540.585 53.2012 541.074 53.2773 541.66 53.2773C542.012 53.2773 542.352 53.2627 542.68 53.2334C543.014 53.2041 543.339 53.1631 543.655 53.1104C543.972 53.0576 544.282 52.9932 544.587 52.917C544.897 52.8408 545.202 52.7588 545.501 52.6709V54.0596C545.214 54.1475 544.927 54.2295 544.64 54.3057C544.358 54.3818 544.065 54.4463 543.761 54.499C543.462 54.5518 543.14 54.5928 542.794 54.6221C542.454 54.6514 542.076 54.666 541.66 54.666C540.758 54.666 539.981 54.5371 539.331 54.2793C538.687 54.0156 538.191 53.5938 537.846 53.0137C537.5 52.4336 537.327 51.6631 537.327 50.7021V46.7031ZM545.07 46.7031H546.767V59.5H545.07V46.7031ZM549.131 54.8506V54.6484C549.131 53.9629 549.23 53.3271 549.43 52.7412C549.629 52.1494 549.916 51.6367 550.291 51.2031C550.666 50.7637 551.12 50.4238 551.653 50.1836C552.187 49.9375 552.784 49.8145 553.446 49.8145C554.114 49.8145 554.715 49.9375 555.248 50.1836C555.787 50.4238 556.244 50.7637 556.619 51.2031C557 51.6367 557.29 52.1494 557.489 52.7412C557.688 53.3271 557.788 53.9629 557.788 54.6484V54.8506C557.788 55.5361 557.688 56.1719 557.489 56.7578C557.29 57.3438 557 57.8564 556.619 58.2959C556.244 58.7295 555.79 59.0693 555.257 59.3154C554.729 59.5557 554.132 59.6758 553.464 59.6758C552.796 59.6758 552.195 59.5557 551.662 59.3154C551.129 59.0693 550.672 58.7295 550.291 58.2959C549.916 57.8564 549.629 57.3438 549.43 56.7578C549.23 56.1719 549.131 55.5361 549.131 54.8506ZM550.757 54.6484V54.8506C550.757 55.3252 550.812 55.7734 550.924 56.1953C551.035 56.6113 551.202 56.9805 551.425 57.3027C551.653 57.625 551.938 57.8799 552.277 58.0674C552.617 58.249 553.013 58.3398 553.464 58.3398C553.909 58.3398 554.299 58.249 554.633 58.0674C554.973 57.8799 555.254 57.625 555.477 57.3027C555.699 56.9805 555.866 56.6113 555.978 56.1953C556.095 55.7734 556.153 55.3252 556.153 54.8506V54.6484C556.153 54.1797 556.095 53.7373 555.978 53.3213C555.866 52.8994 555.696 52.5273 555.468 52.2051C555.245 51.877 554.964 51.6191 554.624 51.4316C554.29 51.2441 553.897 51.1504 553.446 51.1504C553.001 51.1504 552.608 51.2441 552.269 51.4316C551.935 51.6191 551.653 51.877 551.425 52.2051C551.202 52.5273 551.035 52.8994 550.924 53.3213C550.812 53.7373 550.757 54.1797 550.757 54.6484ZM565.294 57.3379L568.528 49.9902H570.093L565.856 59.5H564.731L560.513 49.9902H562.077L565.294 57.3379ZM561.603 49.9902V59.5H559.977V49.9902H561.603ZM568.933 59.5V49.9902H570.567V59.5H568.933ZM575.858 58.5156L578.504 49.9902H580.244L576.43 60.9678C576.342 61.2021 576.225 61.4541 576.078 61.7236C575.938 61.999 575.756 62.2598 575.533 62.5059C575.311 62.752 575.041 62.9512 574.725 63.1035C574.414 63.2617 574.042 63.3408 573.608 63.3408C573.479 63.3408 573.315 63.3232 573.116 63.2881C572.917 63.2529 572.776 63.2236 572.694 63.2002L572.686 61.8818C572.732 61.8877 572.806 61.8936 572.905 61.8994C573.011 61.9111 573.084 61.917 573.125 61.917C573.494 61.917 573.808 61.8672 574.065 61.7676C574.323 61.6738 574.54 61.5127 574.716 61.2842C574.897 61.0615 575.053 60.7539 575.182 60.3613L575.858 58.5156ZM573.916 49.9902L576.386 57.373L576.808 59.0869L575.639 59.6846L572.141 49.9902H573.916ZM591.644 57.3379L594.878 49.9902H596.442L592.206 59.5H591.081L586.862 49.9902H588.427L591.644 57.3379ZM587.952 49.9902V59.5H586.326V49.9902H587.952ZM595.282 59.5V49.9902H596.917V59.5H595.282ZM601.294 56.9248L605.68 49.9902H607.314V59.5H605.68V52.5654L601.294 59.5H599.677V49.9902H601.294V56.9248Z" fill="#011C44"/>
<path d="M674.844 52.2051V53.585H667.918V52.2051H674.844ZM668.182 46.7031V59.5H666.485V46.7031H668.182ZM676.32 46.7031V59.5H674.633V46.7031H676.32ZM684.696 57.874V52.9785C684.696 52.6035 684.62 52.2783 684.468 52.0029C684.321 51.7217 684.099 51.5049 683.8 51.3525C683.501 51.2002 683.132 51.124 682.692 51.124C682.282 51.124 681.922 51.1943 681.611 51.335C681.307 51.4756 681.066 51.6602 680.891 51.8887C680.721 52.1172 680.636 52.3633 680.636 52.627H679.01C679.01 52.2871 679.098 51.9502 679.273 51.6162C679.449 51.2822 679.701 50.9805 680.029 50.7109C680.363 50.4355 680.762 50.2188 681.225 50.0605C681.693 49.8965 682.215 49.8145 682.789 49.8145C683.48 49.8145 684.09 49.9316 684.617 50.166C685.15 50.4004 685.566 50.7549 685.865 51.2295C686.17 51.6982 686.322 52.2871 686.322 52.9961V57.4258C686.322 57.7422 686.349 58.0791 686.401 58.4365C686.46 58.7939 686.545 59.1016 686.656 59.3594V59.5H684.96C684.878 59.3125 684.813 59.0635 684.767 58.7529C684.72 58.4365 684.696 58.1436 684.696 57.874ZM684.978 53.7344L684.995 54.877H683.352C682.889 54.877 682.476 54.915 682.112 54.9912C681.749 55.0615 681.444 55.1699 681.198 55.3164C680.952 55.4629 680.765 55.6475 680.636 55.8701C680.507 56.0869 680.442 56.3418 680.442 56.6348C680.442 56.9336 680.51 57.2061 680.645 57.4521C680.779 57.6982 680.981 57.8945 681.251 58.041C681.526 58.1816 681.863 58.252 682.262 58.252C682.76 58.252 683.199 58.1465 683.58 57.9355C683.961 57.7246 684.263 57.4668 684.485 57.1621C684.714 56.8574 684.837 56.5615 684.854 56.2744L685.549 57.0566C685.508 57.3027 685.396 57.5752 685.215 57.874C685.033 58.1729 684.79 58.46 684.485 58.7354C684.187 59.0049 683.829 59.2305 683.413 59.4121C683.003 59.5879 682.54 59.6758 682.024 59.6758C681.38 59.6758 680.814 59.5498 680.328 59.2979C679.848 59.0459 679.473 58.709 679.203 58.2871C678.939 57.8594 678.808 57.3818 678.808 56.8545C678.808 56.3447 678.907 55.8965 679.106 55.5098C679.306 55.1172 679.593 54.792 679.968 54.5342C680.343 54.2705 680.794 54.0713 681.321 53.9365C681.849 53.8018 682.438 53.7344 683.088 53.7344H684.978ZM689.021 49.9902H690.646V58.1641H694.127V49.9902H695.762V58.1641H699.233V49.9902H700.859V59.5H689.021V49.9902ZM705.219 49.9902V59.5H703.584V49.9902H705.219ZM703.461 47.4678C703.461 47.2041 703.54 46.9814 703.698 46.7998C703.862 46.6182 704.103 46.5273 704.419 46.5273C704.729 46.5273 704.967 46.6182 705.131 46.7998C705.301 46.9814 705.386 47.2041 705.386 47.4678C705.386 47.7197 705.301 47.9365 705.131 48.1182C704.967 48.2939 704.729 48.3818 704.419 48.3818C704.103 48.3818 703.862 48.2939 703.698 48.1182C703.54 47.9365 703.461 47.7197 703.461 47.4678ZM718.631 49.9902V51.335H713.823V49.9902H718.631ZM714.061 49.9902V59.5H712.435V49.9902H714.061ZM720.072 49.9902V59.5H718.438V49.9902H720.072ZM724.309 51.8184V63.1562H722.674V49.9902H724.168L724.309 51.8184ZM730.716 54.666V54.8506C730.716 55.542 730.634 56.1836 730.47 56.7754C730.306 57.3613 730.065 57.8711 729.749 58.3047C729.438 58.7383 729.055 59.0752 728.598 59.3154C728.141 59.5557 727.616 59.6758 727.024 59.6758C726.421 59.6758 725.888 59.5762 725.425 59.377C724.962 59.1777 724.569 58.8877 724.247 58.5068C723.925 58.126 723.667 57.6689 723.474 57.1357C723.286 56.6025 723.157 56.002 723.087 55.334V54.3496C723.157 53.6465 723.289 53.0166 723.482 52.46C723.676 51.9033 723.931 51.4287 724.247 51.0361C724.569 50.6377 724.959 50.3359 725.416 50.1309C725.873 49.9199 726.4 49.8145 726.998 49.8145C727.596 49.8145 728.126 49.9316 728.589 50.166C729.052 50.3945 729.441 50.7227 729.758 51.1504C730.074 51.5781 730.312 52.0908 730.47 52.6885C730.634 53.2803 730.716 53.9395 730.716 54.666ZM729.081 54.8506V54.666C729.081 54.1914 729.031 53.7461 728.932 53.3301C728.832 52.9082 728.677 52.5391 728.466 52.2227C728.261 51.9004 727.997 51.6484 727.675 51.4668C727.353 51.2793 726.969 51.1855 726.523 51.1855C726.113 51.1855 725.756 51.2559 725.451 51.3965C725.152 51.5371 724.897 51.7275 724.687 51.9678C724.476 52.2021 724.303 52.4717 724.168 52.7764C724.039 53.0752 723.942 53.3857 723.878 53.708V55.9844C723.995 56.3945 724.159 56.7812 724.37 57.1445C724.581 57.502 724.862 57.792 725.214 58.0146C725.565 58.2314 726.008 58.3398 726.541 58.3398C726.98 58.3398 727.358 58.249 727.675 58.0674C727.997 57.8799 728.261 57.625 728.466 57.3027C728.677 56.9805 728.832 56.6113 728.932 56.1953C729.031 55.7734 729.081 55.3252 729.081 54.8506ZM732.359 54.8506V54.6484C732.359 53.9629 732.459 53.3271 732.658 52.7412C732.857 52.1494 733.145 51.6367 733.52 51.2031C733.895 50.7637 734.349 50.4238 734.882 50.1836C735.415 49.9375 736.013 49.8145 736.675 49.8145C737.343 49.8145 737.943 49.9375 738.477 50.1836C739.016 50.4238 739.473 50.7637 739.848 51.2031C740.229 51.6367 740.519 52.1494 740.718 52.7412C740.917 53.3271 741.017 53.9629 741.017 54.6484V54.8506C741.017 55.5361 740.917 56.1719 740.718 56.7578C740.519 57.3438 740.229 57.8564 739.848 58.2959C739.473 58.7295 739.019 59.0693 738.485 59.3154C737.958 59.5557 737.36 59.6758 736.692 59.6758C736.024 59.6758 735.424 59.5557 734.891 59.3154C734.357 59.0693 733.9 58.7295 733.52 58.2959C733.145 57.8564 732.857 57.3438 732.658 56.7578C732.459 56.1719 732.359 55.5361 732.359 54.8506ZM733.985 54.6484V54.8506C733.985 55.3252 734.041 55.7734 734.152 56.1953C734.264 56.6113 734.431 56.9805 734.653 57.3027C734.882 57.625 735.166 57.8799 735.506 58.0674C735.846 58.249 736.241 58.3398 736.692 58.3398C737.138 58.3398 737.527 58.249 737.861 58.0674C738.201 57.8799 738.482 57.625 738.705 57.3027C738.928 56.9805 739.095 56.6113 739.206 56.1953C739.323 55.7734 739.382 55.3252 739.382 54.8506V54.6484C739.382 54.1797 739.323 53.7373 739.206 53.3213C739.095 52.8994 738.925 52.5273 738.696 52.2051C738.474 51.877 738.192 51.6191 737.853 51.4316C737.519 51.2441 737.126 51.1504 736.675 51.1504C736.229 51.1504 735.837 51.2441 735.497 51.4316C735.163 51.6191 734.882 51.877 734.653 52.2051C734.431 52.5273 734.264 52.8994 734.152 53.3213C734.041 53.7373 733.985 54.1797 733.985 54.6484ZM743.196 59.5V49.9902H744.822V58.1641H749.199V49.9902H750.834V59.5H743.196ZM751.959 58.1641L751.801 62.3213H750.351V59.5H749.111V58.1641H751.959ZM757.672 59.6758C757.01 59.6758 756.409 59.5645 755.87 59.3418C755.337 59.1133 754.877 58.7939 754.49 58.3838C754.109 57.9736 753.816 57.4873 753.611 56.9248C753.406 56.3623 753.304 55.7471 753.304 55.0791V54.71C753.304 53.9365 753.418 53.248 753.646 52.6445C753.875 52.0352 754.186 51.5195 754.578 51.0977C754.971 50.6758 755.416 50.3564 755.914 50.1396C756.412 49.9229 756.928 49.8145 757.461 49.8145C758.141 49.8145 758.727 49.9316 759.219 50.166C759.717 50.4004 760.124 50.7285 760.44 51.1504C760.757 51.5664 760.991 52.0586 761.144 52.627C761.296 53.1895 761.372 53.8047 761.372 54.4727V55.2021H754.271V53.875H759.746V53.752C759.723 53.3301 759.635 52.9199 759.482 52.5215C759.336 52.123 759.102 51.7949 758.779 51.5371C758.457 51.2793 758.018 51.1504 757.461 51.1504C757.092 51.1504 756.752 51.2295 756.441 51.3877C756.131 51.54 755.864 51.7686 755.642 52.0732C755.419 52.3779 755.246 52.75 755.123 53.1895C755 53.6289 754.938 54.1357 754.938 54.71V55.0791C754.938 55.5303 755 55.9551 755.123 56.3535C755.252 56.7461 755.437 57.0918 755.677 57.3906C755.923 57.6895 756.219 57.9238 756.564 58.0938C756.916 58.2637 757.314 58.3486 757.76 58.3486C758.334 58.3486 758.82 58.2314 759.219 57.9971C759.617 57.7627 759.966 57.4492 760.265 57.0566L761.249 57.8389C761.044 58.1494 760.783 58.4453 760.467 58.7266C760.15 59.0078 759.761 59.2363 759.298 59.4121C758.841 59.5879 758.299 59.6758 757.672 59.6758ZM764.984 49.9902H766.61L766.47 53.5498C766.435 54.4521 766.332 55.2314 766.162 55.8877C765.992 56.5439 765.775 57.1035 765.512 57.5664C765.248 58.0234 764.952 58.4072 764.624 58.7178C764.302 59.0283 763.968 59.2891 763.622 59.5H762.813L762.857 58.1729L763.191 58.1641C763.385 57.9355 763.572 57.7012 763.754 57.4609C763.936 57.2148 764.103 56.9248 764.255 56.5908C764.407 56.251 764.533 55.8379 764.633 55.3516C764.738 54.8594 764.806 54.2588 764.835 53.5498L764.984 49.9902ZM765.389 49.9902H771.11V59.5H769.484V51.4932H765.389V49.9902ZM762.444 58.1641H772.332V62.3037H770.706V59.5H764.07V62.3037H762.436L762.444 58.1641ZM776.806 58.5156L779.451 49.9902H781.191L777.377 60.9678C777.289 61.2021 777.172 61.4541 777.025 61.7236C776.885 61.999 776.703 62.2598 776.48 62.5059C776.258 62.752 775.988 62.9512 775.672 63.1035C775.361 63.2617 774.989 63.3408 774.556 63.3408C774.427 63.3408 774.263 63.3232 774.063 63.2881C773.864 63.2529 773.724 63.2236 773.642 63.2002L773.633 61.8818C773.68 61.8877 773.753 61.8936 773.853 61.8994C773.958 61.9111 774.031 61.917 774.072 61.917C774.441 61.917 774.755 61.8672 775.013 61.7676C775.271 61.6738 775.487 61.5127 775.663 61.2842C775.845 61.0615 776 60.7539 776.129 60.3613L776.806 58.5156ZM774.863 49.9902L777.333 57.373L777.755 59.0869L776.586 59.6846L773.088 49.9902H774.863ZM784.285 51.8184V63.1562H782.65V49.9902H784.145L784.285 51.8184ZM790.692 54.666V54.8506C790.692 55.542 790.61 56.1836 790.446 56.7754C790.282 57.3613 790.042 57.8711 789.726 58.3047C789.415 58.7383 789.031 59.0752 788.574 59.3154C788.117 59.5557 787.593 59.6758 787.001 59.6758C786.397 59.6758 785.864 59.5762 785.401 59.377C784.938 59.1777 784.546 58.8877 784.224 58.5068C783.901 58.126 783.644 57.6689 783.45 57.1357C783.263 56.6025 783.134 56.002 783.063 55.334V54.3496C783.134 53.6465 783.266 53.0166 783.459 52.46C783.652 51.9033 783.907 51.4287 784.224 51.0361C784.546 50.6377 784.936 50.3359 785.393 50.1309C785.85 49.9199 786.377 49.8145 786.975 49.8145C787.572 49.8145 788.103 49.9316 788.565 50.166C789.028 50.3945 789.418 50.7227 789.734 51.1504C790.051 51.5781 790.288 52.0908 790.446 52.6885C790.61 53.2803 790.692 53.9395 790.692 54.666ZM789.058 54.8506V54.666C789.058 54.1914 789.008 53.7461 788.908 53.3301C788.809 52.9082 788.653 52.5391 788.442 52.2227C788.237 51.9004 787.974 51.6484 787.651 51.4668C787.329 51.2793 786.945 51.1855 786.5 51.1855C786.09 51.1855 785.732 51.2559 785.428 51.3965C785.129 51.5371 784.874 51.7275 784.663 51.9678C784.452 52.2021 784.279 52.4717 784.145 52.7764C784.016 53.0752 783.919 53.3857 783.854 53.708V55.9844C783.972 56.3945 784.136 56.7812 784.347 57.1445C784.558 57.502 784.839 57.792 785.19 58.0146C785.542 58.2314 785.984 58.3398 786.518 58.3398C786.957 58.3398 787.335 58.249 787.651 58.0674C787.974 57.8799 788.237 57.625 788.442 57.3027C788.653 56.9805 788.809 56.6113 788.908 56.1953C789.008 55.7734 789.058 55.3252 789.058 54.8506ZM794.524 56.9248L798.91 49.9902H800.545V59.5H798.91V52.5654L794.524 59.5H792.907V49.9902H794.524V56.9248Z" fill="#011C44"/>
<path d="M861.261 46.7031V59.5H859.564V46.7031H861.261ZM869.145 46.7031L863.59 53.7432H860.584L860.32 52.3369H862.579L867.044 46.7031H869.145ZM867.439 59.5L862.632 53.5234L863.581 52.0381L869.514 59.5H867.439ZM870.129 54.8506V54.6484C870.129 53.9629 870.229 53.3271 870.428 52.7412C870.627 52.1494 870.914 51.6367 871.289 51.2031C871.664 50.7637 872.118 50.4238 872.651 50.1836C873.185 49.9375 873.782 49.8145 874.444 49.8145C875.112 49.8145 875.713 49.9375 876.246 50.1836C876.785 50.4238 877.242 50.7637 877.617 51.2031C877.998 51.6367 878.288 52.1494 878.487 52.7412C878.687 53.3271 878.786 53.9629 878.786 54.6484V54.8506C878.786 55.5361 878.687 56.1719 878.487 56.7578C878.288 57.3438 877.998 57.8564 877.617 58.2959C877.242 58.7295 876.788 59.0693 876.255 59.3154C875.728 59.5557 875.13 59.6758 874.462 59.6758C873.794 59.6758 873.193 59.5557 872.66 59.3154C872.127 59.0693 871.67 58.7295 871.289 58.2959C870.914 57.8564 870.627 57.3438 870.428 56.7578C870.229 56.1719 870.129 55.5361 870.129 54.8506ZM871.755 54.6484V54.8506C871.755 55.3252 871.811 55.7734 871.922 56.1953C872.033 56.6113 872.2 56.9805 872.423 57.3027C872.651 57.625 872.936 57.8799 873.275 58.0674C873.615 58.249 874.011 58.3398 874.462 58.3398C874.907 58.3398 875.297 58.249 875.631 58.0674C875.971 57.8799 876.252 57.625 876.475 57.3027C876.697 56.9805 876.864 56.6113 876.976 56.1953C877.093 55.7734 877.151 55.3252 877.151 54.8506V54.6484C877.151 54.1797 877.093 53.7373 876.976 53.3213C876.864 52.8994 876.694 52.5273 876.466 52.2051C876.243 51.877 875.962 51.6191 875.622 51.4316C875.288 51.2441 874.896 51.1504 874.444 51.1504C873.999 51.1504 873.606 51.2441 873.267 51.4316C872.933 51.6191 872.651 51.877 872.423 52.2051C872.2 52.5273 872.033 52.8994 871.922 53.3213C871.811 53.7373 871.755 54.1797 871.755 54.6484ZM887.276 54.1123V55.4307H882.249V54.1123H887.276ZM882.592 49.9902V59.5H880.966V49.9902H882.592ZM888.595 49.9902V59.5H886.96V49.9902H888.595ZM895.09 49.9902V59.5H893.455V49.9902H895.09ZM898.28 49.9902V51.3086H890.326V49.9902H898.28ZM905.347 57.874V52.9785C905.347 52.6035 905.271 52.2783 905.118 52.0029C904.972 51.7217 904.749 51.5049 904.45 51.3525C904.151 51.2002 903.782 51.124 903.343 51.124C902.933 51.124 902.572 51.1943 902.262 51.335C901.957 51.4756 901.717 51.6602 901.541 51.8887C901.371 52.1172 901.286 52.3633 901.286 52.627H899.66C899.66 52.2871 899.748 51.9502 899.924 51.6162C900.1 51.2822 900.352 50.9805 900.68 50.7109C901.014 50.4355 901.412 50.2188 901.875 50.0605C902.344 49.8965 902.865 49.8145 903.439 49.8145C904.131 49.8145 904.74 49.9316 905.268 50.166C905.801 50.4004 906.217 50.7549 906.516 51.2295C906.82 51.6982 906.973 52.2871 906.973 52.9961V57.4258C906.973 57.7422 906.999 58.0791 907.052 58.4365C907.11 58.7939 907.195 59.1016 907.307 59.3594V59.5H905.61C905.528 59.3125 905.464 59.0635 905.417 58.7529C905.37 58.4365 905.347 58.1436 905.347 57.874ZM905.628 53.7344L905.646 54.877H904.002C903.539 54.877 903.126 54.915 902.763 54.9912C902.399 55.0615 902.095 55.1699 901.849 55.3164C901.603 55.4629 901.415 55.6475 901.286 55.8701C901.157 56.0869 901.093 56.3418 901.093 56.6348C901.093 56.9336 901.16 57.2061 901.295 57.4521C901.43 57.6982 901.632 57.8945 901.901 58.041C902.177 58.1816 902.514 58.252 902.912 58.252C903.41 58.252 903.85 58.1465 904.23 57.9355C904.611 57.7246 904.913 57.4668 905.136 57.1621C905.364 56.8574 905.487 56.5615 905.505 56.2744L906.199 57.0566C906.158 57.3027 906.047 57.5752 905.865 57.874C905.684 58.1729 905.44 58.46 905.136 58.7354C904.837 59.0049 904.479 59.2305 904.063 59.4121C903.653 59.5879 903.19 59.6758 902.675 59.6758C902.03 59.6758 901.465 59.5498 900.979 59.2979C900.498 59.0459 900.123 58.709 899.854 58.2871C899.59 57.8594 899.458 57.3818 899.458 56.8545C899.458 56.3447 899.558 55.8965 899.757 55.5098C899.956 55.1172 900.243 54.792 900.618 54.5342C900.993 54.2705 901.444 54.0713 901.972 53.9365C902.499 53.8018 903.088 53.7344 903.738 53.7344H905.628ZM911.297 49.9902V59.5H909.671V49.9902H911.297ZM917.537 49.9902L913.028 55.4395H910.752L910.506 54.0156H912.369L915.56 49.9902H917.537ZM915.788 59.5L912.29 55.1934L913.336 54.0156L917.854 59.5H915.788ZM923.145 49.9902V59.5H921.51V49.9902H923.145ZM926.335 49.9902V51.3086H918.381V49.9902H926.335ZM929.692 56.9248L934.078 49.9902H935.713V59.5H934.078V52.5654L929.692 59.5H928.075V49.9902H929.692V56.9248Z" fill="#011C44"/>
<path d="M1205.65 59.9573L1205.48 59.7413C1204.11 58.0066 1202.96 57.104 1201.98 56.9853C1201.13 56.8693 1200.31 57.4573 1199.43 58.0626L1198.5 58.6466C1198.38 58.7026 1198.27 58.748 1198.17 58.7786C1197.62 58.9333 1196.24 59.024 1195.46 58.3093C1194.55 57.4773 1193.14 55.9546 1192.04 54.624C1191 53.2466 1189.84 51.5293 1189.24 50.448C1188.73 49.532 1189.16 48.2506 1189.44 47.776C1189.5 47.6826 1189.57 47.5906 1189.65 47.5L1190.48 46.7386C1190.49 46.7266 1190.5 46.712 1190.51 46.7013C1190.51 46.6933 1190.53 46.696 1190.54 46.6893C1191.28 46.0613 1192.05 45.4146 1192.16 44.584C1192.28 43.608 1191.67 42.288 1190.3 40.5546L1190.13 40.3386C1189.28 39.248 1187.99 37.5986 1186.15 37.8706C1185.42 37.9786 1184.77 38.2266 1184.1 38.6466C1184.09 38.6506 1184.09 38.6586 1184.08 38.6626C1184.08 38.6666 1184.07 38.6666 1184.07 38.6706L1183.13 39.3613C1183.13 39.3666 1183.12 39.3786 1183.11 39.3866C1183.1 39.3933 1183.09 39.3946 1183.09 39.4013C1182.98 39.492 1182.87 39.5853 1182.76 39.6813C1181.82 40.524 1179.77 42.9706 1181.17 47.496C1182.07 50.4186 1183.93 53.8293 1186.55 57.3786L1186.53 57.4L1187.98 59.2053L1187.99 59.196C1190.84 62.5666 1193.74 65.172 1196.4 66.7493C1198.17 67.8026 1199.72 68.1506 1200.99 68.1506C1202.67 68.1506 1203.87 67.548 1204.48 67.156L1204.85 66.9026C1204.9 66.8733 1204.93 66.832 1204.96 66.7946L1205.78 66.1733C1205.79 66.1653 1205.8 66.1546 1205.81 66.1466C1205.81 66.1426 1205.82 66.144 1205.82 66.14C1206.41 65.604 1206.82 65.0426 1207.1 64.3773C1207.83 62.672 1206.52 61.0386 1205.65 59.9573ZM1206.12 63.9586C1205.9 64.476 1205.58 64.916 1205.11 65.3426L1203.89 66.2666C1202.77 66.9893 1200.4 67.8826 1196.94 65.832C1194.29 64.2546 1191.36 61.588 1188.48 58.12L1187.7 57.136C1184.99 53.5413 1183.09 50.0986 1182.19 47.1813C1181.02 43.388 1182.49 41.3533 1183.48 40.4746C1183.58 40.384 1183.68 40.3 1183.78 40.216L1183.78 40.212L1184.67 39.5493C1185.22 39.2053 1185.72 39.0133 1186.3 38.9253C1187.54 38.7386 1188.55 40.0453 1189.29 40.9946L1189.46 41.2146C1191 43.152 1191.15 44.0733 1191.1 44.4493C1191.05 44.8666 1190.41 45.4013 1189.85 45.872L1189.77 45.9386C1189.77 45.9413 1189.77 45.9453 1189.77 45.948C1189.76 45.9506 1189.76 45.952 1189.75 45.9546L1188.9 46.7426C1188.9 46.748 1188.89 46.7546 1188.89 46.7613C1188.88 46.768 1188.87 46.7706 1188.87 46.7773C1188.73 46.9253 1188.62 47.0733 1188.53 47.2266C1188.05 48.028 1187.6 49.684 1188.31 50.9653C1188.93 52.0853 1190.12 53.8546 1191.21 55.284C1192.35 56.6653 1193.8 58.2333 1194.74 59.0933C1195.45 59.7373 1196.43 59.9533 1197.28 59.9533C1197.73 59.9533 1198.15 59.8906 1198.47 59.8013C1198.63 59.7533 1198.8 59.684 1198.98 59.5973C1198.99 59.592 1199 59.5826 1199.01 59.576C1199.01 59.5733 1199.02 59.5746 1199.03 59.5706L1200.02 58.952C1200.05 58.9306 1200.07 58.9026 1200.1 58.876L1200.11 58.8893C1200.72 58.4666 1201.41 57.9706 1201.85 58.0426C1202.23 58.0893 1203.11 58.46 1204.65 60.4026L1204.82 60.6253C1205.57 61.56 1206.6 62.84 1206.12 63.9586Z" fill="#011C44"/>
<path d="M1265.99 39.1281C1264.64 38.9854 1263.29 38.916 1261.94 38.9201C1257.45 38.9201 1254.67 41.7761 1254.67 46.3734V49.4948H1250.9C1250.72 49.4948 1250.55 49.565 1250.43 49.69C1250.3 49.815 1250.23 49.9846 1250.23 50.1614V55.2948C1250.23 55.4716 1250.3 55.6411 1250.43 55.7662C1250.55 55.8912 1250.72 55.9614 1250.9 55.9614H1254.67V66.2548C1254.67 66.4316 1254.74 66.6011 1254.86 66.7262C1254.99 66.8512 1255.16 66.9214 1255.33 66.9214H1260.64C1260.81 66.9214 1260.98 66.8512 1261.11 66.7262C1261.23 66.6011 1261.3 66.4316 1261.3 66.2548V55.9614H1265.06C1265.22 55.9615 1265.38 55.9027 1265.5 55.796C1265.62 55.6893 1265.7 55.5419 1265.72 55.3814L1266.38 50.2481C1266.4 50.154 1266.39 50.0584 1266.36 49.9676C1266.33 49.8768 1266.29 49.7929 1266.22 49.7216C1266.16 49.6503 1266.08 49.5932 1266 49.554C1265.91 49.5149 1265.82 49.4947 1265.72 49.4948H1261.3V46.8828C1261.3 45.5894 1261.56 45.0494 1263.18 45.0494H1265.9C1266.08 45.0494 1266.25 44.9792 1266.37 44.8542C1266.5 44.7291 1266.57 44.5596 1266.57 44.3828V39.7894C1266.57 39.6276 1266.51 39.4712 1266.4 39.3495C1266.29 39.2278 1266.15 39.1491 1265.99 39.1281ZM1265.23 43.7148L1263.18 43.7161C1260.3 43.7161 1259.97 45.5241 1259.97 46.8828V50.1628C1259.97 50.3393 1260.04 50.5087 1260.17 50.6337C1260.29 50.7587 1260.46 50.8291 1260.64 50.8294H1264.96L1264.47 54.6294H1260.64C1260.46 54.6294 1260.29 54.6997 1260.17 54.8247C1260.04 54.9497 1259.97 55.1193 1259.97 55.2961V65.5868H1256V55.2961C1256 55.1193 1255.93 54.9497 1255.8 54.8247C1255.68 54.6997 1255.51 54.6294 1255.33 54.6294H1251.57V50.8294H1255.33C1255.51 50.8294 1255.68 50.7592 1255.8 50.6342C1255.93 50.5091 1256 50.3396 1256 50.1628V46.3734C1256 42.5414 1258.22 40.2534 1261.94 40.2534C1263.28 40.2534 1264.5 40.3268 1265.23 40.3908V43.7148Z" fill="#011C44"/>
<path d="M1322 47.25C1320.86 47.25 1319.75 47.5872 1318.81 48.219C1317.86 48.8509 1317.12 49.7489 1316.69 50.7996C1316.25 51.8502 1316.14 53.0064 1316.36 54.1218C1316.58 55.2372 1317.13 56.2617 1317.93 57.0659C1318.74 57.87 1319.76 58.4177 1320.88 58.6395C1321.99 58.8614 1323.15 58.7475 1324.2 58.3123C1325.25 57.8771 1326.15 57.1401 1326.78 56.1945C1327.41 55.2489 1327.75 54.1372 1327.75 53C1327.75 51.475 1327.14 50.0125 1326.07 48.9341C1324.99 47.8558 1323.52 47.25 1322 47.25ZM1322 57.25C1321.16 57.25 1320.34 57.0007 1319.64 56.5337C1318.94 56.0668 1318.4 55.403 1318.07 54.6264C1317.75 53.8498 1317.67 52.9953 1317.83 52.1709C1318 51.3464 1318.4 50.5892 1318.99 49.9948C1319.59 49.4004 1320.35 48.9956 1321.17 48.8317C1322 48.6677 1322.85 48.7518 1323.63 49.0735C1324.4 49.3952 1325.07 49.9399 1325.53 50.6388C1326 51.3377 1326.25 52.1594 1326.25 53C1326.25 54.1262 1325.8 55.2052 1325 56.0016C1324.21 56.7979 1323.13 57.2467 1322 57.25ZM1327.5 40.75H1316.5C1314.71 40.75 1312.99 41.4612 1311.73 42.727C1310.46 43.9929 1309.75 45.7098 1309.75 47.5V58.5C1309.75 60.2902 1310.46 62.0071 1311.73 63.273C1312.99 64.5388 1314.71 65.25 1316.5 65.25H1327.5C1329.29 65.25 1331.01 64.5388 1332.27 63.273C1333.54 62.0071 1334.25 60.2902 1334.25 58.5V47.5C1334.25 45.7098 1333.54 43.9929 1332.27 42.727C1331.01 41.4612 1329.29 40.75 1327.5 40.75ZM1332.75 58.5C1332.75 59.8924 1332.2 61.2277 1331.21 62.2123C1330.23 63.1969 1328.89 63.75 1327.5 63.75H1316.5C1315.11 63.75 1313.77 63.1969 1312.79 62.2123C1311.8 61.2277 1311.25 59.8924 1311.25 58.5V47.5C1311.25 46.1076 1311.8 44.7723 1312.79 43.7877C1313.77 42.8031 1315.11 42.25 1316.5 42.25H1327.5C1328.89 42.25 1330.23 42.8031 1331.21 43.7877C1332.2 44.7723 1332.75 46.1076 1332.75 47.5V58.5ZM1329.75 46.5C1329.75 46.7472 1329.68 46.9889 1329.54 47.1945C1329.4 47.4 1329.21 47.5602 1328.98 47.6548C1328.75 47.7495 1328.5 47.7742 1328.26 47.726C1328.01 47.6778 1327.79 47.5587 1327.62 47.3839C1327.44 47.2091 1327.32 46.9863 1327.27 46.7439C1327.23 46.5014 1327.25 46.2501 1327.35 46.0216C1327.44 45.7932 1327.6 45.598 1327.81 45.4607C1328.01 45.3233 1328.25 45.25 1328.5 45.25C1328.83 45.25 1329.15 45.3817 1329.38 45.6161C1329.62 45.8505 1329.75 46.1685 1329.75 46.5Z" fill="#011C44"/>
<defs>
<filter id="filter0_b_74_473" x="-10" y="-10" width="1460" height="126" filterUnits="userSpaceOnUse" color-interpolation-filters="sRGB">
<feFlood flood-opacity="0" result="BackgroundImageFix"/>
<feGaussianBlur in="BackgroundImageFix" stdDeviation="5"/>
<feComposite in2="SourceAlpha" operator="in" result="effect1_backgroundBlur_74_473"/>
<feBlend mode="normal" in="SourceGraphic" in2="effect1_backgroundBlur_74_473" result="shape"/>
</filter>
</defs>
</svg>
